# xmcd
#
# Track frame offsets: 
#        150
#        20509
#        37666
#        56914
#        75231
#        95287
#        118939
#        138158
#        153916
#        175119
#        198213
#        215944
#        234950
#        258707
#        281459
#
# Disc length: 4058 seconds
#
# Revision: 0
# Processed by: cddbd v1.5.2PL0 Copyright (c) Steve Scherf et al.
# Submitted via: ExactAudioCopyFreeDBPlugin 1.0
#
DISCID=c40fd80f
DTITLE=群星 - DTS 美女私房歌
DYEAR=2010
DGENRE=Acid
TTITLE0=无可替代
TTITLE1=不是爱人不配情深 
TTITLE2=爱与哀愁
TTITLE3=从此我该怎么过
TTITLE4=黄昏
TTITLE5=如果今生不能在一起 
TTITLE6=无路可退
TTITLE7=把心交出来 
TTITLE8=别等我离开才说爱我 
TTITLE9=谁是爱情里的主角
TTITLE10=拥抱我
TTITLE11=珍惜
TTITLE12=手心里的温柔
TTITLE13=爱情里没有谁对谁错 
TTITLE14=情劫
EXTD=
EXTT0=
EXTT1=
EXTT2=
EXTT3=
EXTT4=
EXTT5=
EXTT6=
EXTT7=
EXTT8=
EXTT9=
EXTT10=
EXTT11=
EXTT12=
EXTT13=
EXTT14=
PLAYORDER=
